<mxfile host="Electron" agent="Mozilla/5.0 (Windows NT 10.0; Win64; x64) AppleWebKit/537.36 (KHTML, like Gecko) draw.io/26.0.9 Chrome/128.0.6613.186 Electron/32.2.5 Safari/537.36" version="26.0.9">
  <diagram name="Page-1" id="2YBvvXClWsGukQMizWep">
    <mxGraphModel dx="2465" dy="968" grid="1" gridSize="10" guides="1" tooltips="1" connect="1" arrows="1" fold="1" page="1" pageScale="1" pageWidth="850" pageHeight="1100" math="0" shadow="0">
      <root>
        <mxCell id="0" />
        <mxCell id="1" parent="0" />
        <mxCell id="FXTe1j75_4-qKgxSydeI-1" value="Arbeitsauftrag 1" style="shape=umlFrame;whiteSpace=wrap;html=1;pointerEvents=0;width=60;height=30;" parent="1" vertex="1">
          <mxGeometry x="-820" y="10" width="460" height="1050" as="geometry" />
        </mxCell>
        <mxCell id="FXTe1j75_4-qKgxSydeI-3" value="" style="html=1;points=[[0,0,0,0,5],[0,1,0,0,-5],[1,0,0,0,5],[1,1,0,0,-5]];perimeter=orthogonalPerimeter;outlineConnect=0;targetShapes=umlLifeline;portConstraint=eastwest;newEdgeStyle={&quot;curved&quot;:0,&quot;rounded&quot;:0};" parent="1" vertex="1">
          <mxGeometry x="-750" y="70" width="10" height="960" as="geometry" />
        </mxCell>
        <mxCell id="FXTe1j75_4-qKgxSydeI-4" value=": main" style="text;html=1;align=center;verticalAlign=middle;resizable=0;points=[];autosize=1;strokeColor=none;fillColor=none;" parent="1" vertex="1">
          <mxGeometry x="-770" y="48" width="60" height="30" as="geometry" />
        </mxCell>
        <mxCell id="FXTe1j75_4-qKgxSydeI-6" value="" style="html=1;points=[[0,0,0,0,5],[0,1,0,0,-5],[1,0,0,0,5],[1,1,0,0,-5]];perimeter=orthogonalPerimeter;outlineConnect=0;targetShapes=umlLifeline;portConstraint=eastwest;newEdgeStyle={&quot;curved&quot;:0,&quot;rounded&quot;:0};" parent="1" vertex="1">
          <mxGeometry x="-670" y="90" width="10" height="940" as="geometry" />
        </mxCell>
        <mxCell id="FXTe1j75_4-qKgxSydeI-7" value="create" style="html=1;verticalAlign=bottom;endArrow=block;curved=0;rounded=0;entryX=0;entryY=0;entryDx=0;entryDy=5;" parent="1" target="FXTe1j75_4-qKgxSydeI-6" edge="1">
          <mxGeometry relative="1" as="geometry">
            <mxPoint x="-740" y="95" as="sourcePoint" />
          </mxGeometry>
        </mxCell>
        <mxCell id="FXTe1j75_4-qKgxSydeI-9" value="create(meister)" style="html=1;verticalAlign=bottom;endArrow=block;curved=0;rounded=0;" parent="1" target="FXTe1j75_4-qKgxSydeI-10" edge="1">
          <mxGeometry relative="1" as="geometry">
            <mxPoint x="-740" y="140" as="sourcePoint" />
            <mxPoint x="-670" y="140" as="targetPoint" />
          </mxGeometry>
        </mxCell>
        <mxCell id="FXTe1j75_4-qKgxSydeI-10" value="" style="html=1;points=[[0,0,0,0,5],[0,1,0,0,-5],[1,0,0,0,5],[1,1,0,0,-5]];perimeter=orthogonalPerimeter;outlineConnect=0;targetShapes=umlLifeline;portConstraint=eastwest;newEdgeStyle={&quot;curved&quot;:0,&quot;rounded&quot;:0};" parent="1" vertex="1">
          <mxGeometry x="-590" y="130" width="10" height="900" as="geometry" />
        </mxCell>
        <mxCell id="FXTe1j75_4-qKgxSydeI-11" value="eder : meister" style="text;html=1;align=center;verticalAlign=middle;resizable=0;points=[];autosize=1;strokeColor=none;fillColor=none;" parent="1" vertex="1">
          <mxGeometry x="-720" y="58" width="100" height="30" as="geometry" />
        </mxCell>
        <mxCell id="FXTe1j75_4-qKgxSydeI-12" value="henning : lehrling" style="text;html=1;align=center;verticalAlign=middle;resizable=0;points=[];autosize=1;strokeColor=none;fillColor=none;" parent="1" vertex="1">
          <mxGeometry x="-640" y="100" width="110" height="30" as="geometry" />
        </mxCell>
        <mxCell id="FXTe1j75_4-qKgxSydeI-17" value="nachPauseFragen()" style="html=1;verticalAlign=bottom;endArrow=block;curved=0;rounded=0;" parent="1" edge="1">
          <mxGeometry relative="1" as="geometry">
            <mxPoint x="-740" y="250" as="sourcePoint" />
            <mxPoint x="-590" y="250" as="targetPoint" />
          </mxGeometry>
        </mxCell>
        <mxCell id="FXTe1j75_4-qKgxSydeI-20" value="getFlessig()" style="html=1;verticalAlign=bottom;endArrow=block;curved=0;rounded=0;" parent="1" edge="1">
          <mxGeometry relative="1" as="geometry">
            <mxPoint x="-740" y="170" as="sourcePoint" />
            <mxPoint x="-590" y="170" as="targetPoint" />
          </mxGeometry>
        </mxCell>
        <mxCell id="FXTe1j75_4-qKgxSydeI-21" value="boolean" style="html=1;verticalAlign=bottom;endArrow=open;dashed=1;endSize=8;curved=0;rounded=0;exitX=0;exitY=1;exitDx=0;exitDy=-5;" parent="1" edge="1">
          <mxGeometry relative="1" as="geometry">
            <mxPoint x="-740" y="189.99999999999994" as="targetPoint" />
            <mxPoint x="-590" y="190" as="sourcePoint" />
          </mxGeometry>
        </mxCell>
        <mxCell id="FXTe1j75_4-qKgxSydeI-22" value="anwtortAufPauseGeben()" style="html=1;verticalAlign=bottom;endArrow=block;curved=0;rounded=0;" parent="1" edge="1">
          <mxGeometry relative="1" as="geometry">
            <mxPoint x="-590" y="279.58" as="sourcePoint" />
            <mxPoint x="-660" y="279.58" as="targetPoint" />
          </mxGeometry>
        </mxCell>
        <mxCell id="FXTe1j75_4-qKgxSydeI-24" value="string" style="html=1;verticalAlign=bottom;endArrow=open;dashed=1;endSize=8;curved=0;rounded=0;" parent="1" edge="1">
          <mxGeometry relative="1" as="geometry">
            <mxPoint x="-590" y="300" as="targetPoint" />
            <mxPoint x="-660" y="300.00000000000006" as="sourcePoint" />
          </mxGeometry>
        </mxCell>
        <mxCell id="FXTe1j75_4-qKgxSydeI-25" value="" style="html=1;verticalAlign=bottom;endArrow=open;dashed=1;endSize=8;curved=0;rounded=0;exitX=0;exitY=1;exitDx=0;exitDy=-5;" parent="1" edge="1">
          <mxGeometry relative="1" as="geometry">
            <mxPoint x="-740" y="310" as="targetPoint" />
            <mxPoint x="-590" y="309.58" as="sourcePoint" />
          </mxGeometry>
        </mxCell>
        <mxCell id="FXTe1j75_4-qKgxSydeI-60" value="string" style="edgeLabel;html=1;align=center;verticalAlign=middle;resizable=0;points=[];" parent="FXTe1j75_4-qKgxSydeI-25" vertex="1" connectable="0">
          <mxGeometry x="0.5977" y="-3" relative="1" as="geometry">
            <mxPoint as="offset" />
          </mxGeometry>
        </mxCell>
        <mxCell id="FXTe1j75_4-qKgxSydeI-27" value="fegen()" style="html=1;verticalAlign=bottom;endArrow=block;curved=0;rounded=0;" parent="1" edge="1">
          <mxGeometry relative="1" as="geometry">
            <mxPoint x="-737.5" y="370" as="sourcePoint" />
            <mxPoint x="-587.5" y="370" as="targetPoint" />
          </mxGeometry>
        </mxCell>
        <mxCell id="FXTe1j75_4-qKgxSydeI-28" value="" style="html=1;verticalAlign=bottom;endArrow=open;dashed=1;endSize=8;curved=0;rounded=0;exitX=0;exitY=1;exitDx=0;exitDy=-5;" parent="1" edge="1">
          <mxGeometry relative="1" as="geometry">
            <mxPoint x="-740" y="380.42" as="targetPoint" />
            <mxPoint x="-590" y="380" as="sourcePoint" />
          </mxGeometry>
        </mxCell>
        <mxCell id="FXTe1j75_4-qKgxSydeI-29" value="baueStÃ¼hle(amount: int)" style="html=1;verticalAlign=bottom;endArrow=block;curved=0;rounded=0;" parent="1" edge="1">
          <mxGeometry relative="1" as="geometry">
            <mxPoint x="-740" y="490" as="sourcePoint" />
            <mxPoint x="-590" y="490" as="targetPoint" />
          </mxGeometry>
        </mxCell>
        <mxCell id="FXTe1j75_4-qKgxSydeI-31" value="baueStuhl()" style="html=1;align=left;spacingLeft=2;endArrow=block;rounded=0;edgeStyle=orthogonalEdgeStyle;curved=0;rounded=0;" parent="1" edge="1">
          <mxGeometry x="0.8485" y="-10" relative="1" as="geometry">
            <mxPoint x="-580" y="548" as="sourcePoint" />
            <Array as="points">
              <mxPoint x="-580" y="558" />
              <mxPoint x="-530" y="558" />
              <mxPoint x="-530" y="580" />
            </Array>
            <mxPoint x="-580" y="580" as="targetPoint" />
            <mxPoint as="offset" />
          </mxGeometry>
        </mxCell>
        <mxCell id="FXTe1j75_4-qKgxSydeI-32" value="" style="html=1;points=[[0,0,0,0,5],[0,1,0,0,-5],[1,0,0,0,5],[1,1,0,0,-5]];perimeter=orthogonalPerimeter;outlineConnect=0;targetShapes=umlLifeline;portConstraint=eastwest;newEdgeStyle={&quot;curved&quot;:0,&quot;rounded&quot;:0};" parent="1" vertex="1">
          <mxGeometry x="-510" y="550" width="10" height="480" as="geometry" />
        </mxCell>
        <mxCell id="FXTe1j75_4-qKgxSydeI-33" value="create(bool)" style="html=1;verticalAlign=bottom;endArrow=block;curved=0;rounded=0;" parent="1" edge="1">
          <mxGeometry x="-0.1429" relative="1" as="geometry">
            <mxPoint x="-580" y="603" as="sourcePoint" />
            <mxPoint x="-510" y="603" as="targetPoint" />
            <mxPoint as="offset" />
          </mxGeometry>
        </mxCell>
        <mxCell id="FXTe1j75_4-qKgxSydeI-35" value="loop" style="shape=umlFrame;whiteSpace=wrap;html=1;pointerEvents=0;" parent="1" vertex="1">
          <mxGeometry x="-810" y="500" width="370" height="220" as="geometry" />
        </mxCell>
        <mxCell id="FXTe1j75_4-qKgxSydeI-37" value="foreach in amount" style="text;html=1;align=center;verticalAlign=middle;resizable=0;points=[];autosize=1;strokeColor=none;fillColor=none;" parent="1" vertex="1">
          <mxGeometry x="-730" y="530" width="120" height="30" as="geometry" />
        </mxCell>
        <mxCell id="FXTe1j75_4-qKgxSydeI-38" value="konkreterStuhl : stuhl" style="text;html=1;align=center;verticalAlign=middle;resizable=0;points=[];autosize=1;strokeColor=none;fillColor=none;" parent="1" vertex="1">
          <mxGeometry x="-575" y="520" width="140" height="30" as="geometry" />
        </mxCell>
        <mxCell id="FXTe1j75_4-qKgxSydeI-43" value="addStuhl(konkreterStuhl)" style="html=1;verticalAlign=bottom;endArrow=block;curved=0;rounded=0;entryX=1;entryY=0;entryDx=0;entryDy=5;" parent="1" edge="1">
          <mxGeometry relative="1" as="geometry">
            <mxPoint x="-590" y="630" as="sourcePoint" />
            <mxPoint x="-660" y="630" as="targetPoint" />
          </mxGeometry>
        </mxCell>
        <mxCell id="FXTe1j75_4-qKgxSydeI-44" value="" style="html=1;verticalAlign=bottom;endArrow=open;dashed=1;endSize=8;curved=0;rounded=0;exitX=1;exitY=1;exitDx=0;exitDy=-5;" parent="1" edge="1">
          <mxGeometry relative="1" as="geometry">
            <mxPoint x="-590" y="650" as="targetPoint" />
            <mxPoint x="-660" y="650" as="sourcePoint" />
          </mxGeometry>
        </mxCell>
        <mxCell id="FXTe1j75_4-qKgxSydeI-45" value="prÃ¼feArbeit()" style="html=1;verticalAlign=bottom;endArrow=block;curved=0;rounded=0;" parent="1" edge="1">
          <mxGeometry relative="1" as="geometry">
            <mxPoint x="-740" y="790" as="sourcePoint" />
            <mxPoint x="-670" y="790" as="targetPoint" />
          </mxGeometry>
        </mxCell>
        <mxCell id="FXTe1j75_4-qKgxSydeI-47" value="loop" style="shape=umlFrame;whiteSpace=wrap;html=1;pointerEvents=0;" parent="1" vertex="1">
          <mxGeometry x="-810" y="800" width="350" height="250" as="geometry" />
        </mxCell>
        <mxCell id="FXTe1j75_4-qKgxSydeI-48" value="foreach in amountStÃ¼hle" style="text;html=1;align=center;verticalAlign=middle;resizable=0;points=[];autosize=1;strokeColor=none;fillColor=none;" parent="1" vertex="1">
          <mxGeometry x="-750" y="800" width="150" height="30" as="geometry" />
        </mxCell>
        <mxCell id="FXTe1j75_4-qKgxSydeI-49" value="" style="html=1;verticalAlign=bottom;endArrow=open;dashed=1;endSize=8;curved=0;rounded=0;exitX=0;exitY=1;exitDx=0;exitDy=-5;" parent="1" edge="1">
          <mxGeometry relative="1" as="geometry">
            <mxPoint x="-740" y="730.4200000000001" as="targetPoint" />
            <mxPoint x="-590" y="730" as="sourcePoint" />
          </mxGeometry>
        </mxCell>
        <mxCell id="FXTe1j75_4-qKgxSydeI-53" value="getQualitÃ¤t()" style="html=1;verticalAlign=bottom;endArrow=block;curved=0;rounded=0;" parent="1" edge="1">
          <mxGeometry relative="1" as="geometry">
            <mxPoint x="-660" y="840" as="sourcePoint" />
            <mxPoint x="-510" y="840" as="targetPoint" />
          </mxGeometry>
        </mxCell>
        <mxCell id="FXTe1j75_4-qKgxSydeI-55" value="" style="html=1;verticalAlign=bottom;endArrow=open;dashed=1;endSize=8;curved=0;rounded=0;exitX=0;exitY=1;exitDx=0;exitDy=-5;" parent="1" edge="1">
          <mxGeometry relative="1" as="geometry">
            <mxPoint x="-660" y="890.4200000000001" as="targetPoint" />
            <mxPoint x="-510" y="890" as="sourcePoint" />
          </mxGeometry>
        </mxCell>
        <mxCell id="FXTe1j75_4-qKgxSydeI-70" value="bool" style="edgeLabel;html=1;align=center;verticalAlign=middle;resizable=0;points=[];" parent="FXTe1j75_4-qKgxSydeI-55" vertex="1" connectable="0">
          <mxGeometry x="-0.2133" relative="1" as="geometry">
            <mxPoint x="9" as="offset" />
          </mxGeometry>
        </mxCell>
        <mxCell id="FXTe1j75_4-qKgxSydeI-58" value="opt" style="shape=umlFrame;whiteSpace=wrap;html=1;pointerEvents=0;" parent="1" vertex="1">
          <mxGeometry x="-810" y="200" width="295" height="130" as="geometry" />
        </mxCell>
        <mxCell id="FXTe1j75_4-qKgxSydeI-59" value="lehrling.fleiÃig&lt;div&gt;&amp;nbsp;= true&lt;/div&gt;" style="text;html=1;align=center;verticalAlign=middle;resizable=0;points=[];autosize=1;strokeColor=none;fillColor=none;" parent="1" vertex="1">
          <mxGeometry x="-820" y="230" width="100" height="40" as="geometry" />
        </mxCell>
        <mxCell id="FXTe1j75_4-qKgxSydeI-61" value="" style="html=1;align=left;spacingLeft=2;endArrow=block;rounded=0;edgeStyle=orthogonalEdgeStyle;curved=0;rounded=0;dashed=1;" parent="1" edge="1">
          <mxGeometry x="0.8485" y="-10" relative="1" as="geometry">
            <mxPoint x="-580" y="660" as="sourcePoint" />
            <Array as="points">
              <mxPoint x="-580" y="670" />
              <mxPoint x="-530" y="670" />
              <mxPoint x="-530" y="692" />
            </Array>
            <mxPoint x="-580" y="692" as="targetPoint" />
            <mxPoint as="offset" />
          </mxGeometry>
        </mxCell>
        <mxCell id="FXTe1j75_4-qKgxSydeI-65" value="alt" style="shape=umlFrame;whiteSpace=wrap;html=1;pointerEvents=0;" parent="1" vertex="1">
          <mxGeometry x="-800" y="860" width="330" height="180" as="geometry" />
        </mxCell>
        <mxCell id="FXTe1j75_4-qKgxSydeI-69" value="" style="endArrow=none;html=1;rounded=0;exitX=0;exitY=0.5;exitDx=0;exitDy=0;exitPerimeter=0;entryX=0.999;entryY=0.496;entryDx=0;entryDy=0;entryPerimeter=0;" parent="1" source="FXTe1j75_4-qKgxSydeI-65" target="FXTe1j75_4-qKgxSydeI-65" edge="1">
          <mxGeometry width="50" height="50" relative="1" as="geometry">
            <mxPoint x="-590" y="910" as="sourcePoint" />
            <mxPoint x="-540" y="860" as="targetPoint" />
          </mxGeometry>
        </mxCell>
        <mxCell id="FXTe1j75_4-qKgxSydeI-71" value="quali =&amp;nbsp;&lt;div&gt;true&lt;/div&gt;" style="text;html=1;align=center;verticalAlign=middle;resizable=0;points=[];autosize=1;strokeColor=none;fillColor=none;" parent="1" vertex="1">
          <mxGeometry x="-800" y="900" width="60" height="40" as="geometry" />
        </mxCell>
        <mxCell id="FXTe1j75_4-qKgxSydeI-72" value="quali =&amp;nbsp;&lt;div&gt;false&lt;/div&gt;" style="text;html=1;align=center;verticalAlign=middle;resizable=0;points=[];autosize=1;strokeColor=none;fillColor=none;" parent="1" vertex="1">
          <mxGeometry x="-800" y="970" width="60" height="40" as="geometry" />
        </mxCell>
        <mxCell id="FXTe1j75_4-qKgxSydeI-73" value="" style="html=1;verticalAlign=bottom;endArrow=open;dashed=1;endSize=8;curved=0;rounded=0;exitX=0;exitY=1;exitDx=0;exitDy=-5;" parent="1" edge="1">
          <mxGeometry relative="1" as="geometry">
            <mxPoint x="-660" y="970.4200000000001" as="targetPoint" />
            <mxPoint x="-510" y="970" as="sourcePoint" />
          </mxGeometry>
        </mxCell>
        <mxCell id="FXTe1j75_4-qKgxSydeI-74" value="bool" style="edgeLabel;html=1;align=center;verticalAlign=middle;resizable=0;points=[];" parent="FXTe1j75_4-qKgxSydeI-73" vertex="1" connectable="0">
          <mxGeometry x="-0.2133" relative="1" as="geometry">
            <mxPoint x="9" as="offset" />
          </mxGeometry>
        </mxCell>
        <mxCell id="FXTe1j75_4-qKgxSydeI-75" value="" style="html=1;verticalAlign=bottom;endArrow=open;dashed=1;endSize=8;curved=0;rounded=0;" parent="1" edge="1">
          <mxGeometry relative="1" as="geometry">
            <mxPoint x="-740" y="920.0000000000001" as="targetPoint" />
            <mxPoint x="-670" y="920" as="sourcePoint" />
          </mxGeometry>
        </mxCell>
        <mxCell id="FXTe1j75_4-qKgxSydeI-77" value="" style="html=1;verticalAlign=bottom;endArrow=open;dashed=1;endSize=8;curved=0;rounded=0;" parent="1" edge="1">
          <mxGeometry relative="1" as="geometry">
            <mxPoint x="-740" y="1000.4200000000001" as="targetPoint" />
            <mxPoint x="-670" y="1000" as="sourcePoint" />
          </mxGeometry>
        </mxCell>
      </root>
    </mxGraphModel>
  </diagram>
</mxfile>
